<?xml version="1.0" encoding="utf-8"?>
<!-- Generator: Adobe Illustrator 24.0.1, SVG Export Plug-In . SVG Version: 6.00 Build 0)  -->
<svg version="1.1" id="Layer_1" xmlns="http://www.w3.org/2000/svg" xmlns:xlink="http://www.w3.org/1999/xlink" x="0px" y="0px"
	 viewBox="0 0 64 64" style="enable-background:new 0 0 64 64;" xml:space="preserve">
<title>Rim 2019</title>
<g>
	<path d="M32,58.6c-0.5,0-1.1,0-1.6,0c-0.7,0-1-0.3-1.2-1c-0.1-0.2-0.1-0.4-0.2-0.7c-0.1-0.4-0.2-0.9-0.3-1.3
		c-0.1-0.4-0.5-0.7-0.8-0.8c-1.2-0.3-2.5-0.7-3.7-1c-0.1,0-0.2,0-0.2,0c-0.3,0-0.7,0.1-0.9,0.3c-0.3,0.3-0.6,0.6-0.9,0.9
		c-0.2,0.2-0.4,0.4-0.6,0.6C21.3,55.9,21,56,20.8,56c-0.2,0-0.4-0.1-0.6-0.2c-1-0.5-2-1.1-2.9-1.7c-0.5-0.3-0.6-0.7-0.5-1.2
		c0.2-0.6,0.3-1.3,0.6-2c0.2-0.5,0.1-0.9-0.3-1.3c-0.4-0.4-0.9-0.9-1.3-1.3c-0.4-0.4-0.9-0.9-1.4-1.4c-0.2-0.2-0.6-0.3-0.9-0.3
		c-0.1,0-0.2,0-0.2,0c-0.4,0.1-0.9,0.2-1.3,0.3c-0.3,0.1-0.5,0.1-0.8,0.2c-0.1,0-0.3,0.1-0.4,0.1c-0.4,0-0.7-0.2-0.9-0.6
		c-0.5-0.9-1.1-1.9-1.6-2.8c-0.3-0.6-0.3-1,0.2-1.5C8.8,42,9.3,41.5,9.8,41c0.5-0.5,0.4-1,0.3-1.3c-0.3-1.2-0.7-2.4-1-3.6
		c-0.1-0.3-0.3-0.8-0.9-0.9c-0.6-0.1-1.2-0.3-1.8-0.4l-0.1,0c-0.7-0.2-1-0.5-1-1.2c0-0.9,0-1.9,0-3.1c0-0.7,0.3-1.1,1-1.3
		C6.6,29.1,6.8,29.1,7,29c0.4-0.1,0.9-0.2,1.3-0.3c0.4-0.1,0.7-0.5,0.8-0.8c0.2-0.6,0.3-1.2,0.5-1.8c0.2-0.6,0.3-1.2,0.5-1.8
		c0.1-0.5,0-0.9-0.3-1.2c-0.5-0.5-1-1-1.5-1.5c-0.4-0.4-0.5-0.8-0.2-1.3c0.5-1,1.1-2,1.8-3.1c0.2-0.3,0.5-0.5,0.9-0.5
		c0.1,0,0.2,0,0.3,0c0.3,0.1,0.6,0.2,0.9,0.3c0.4,0.1,0.8,0.2,1.3,0.3c0.1,0,0.2,0,0.2,0c0.3,0,0.6-0.1,0.9-0.3
		c1-0.9,1.9-1.8,2.7-2.7c0.3-0.3,0.4-0.7,0.3-1.1c-0.1-0.4-0.2-0.9-0.3-1.3c-0.1-0.2-0.1-0.4-0.2-0.7c-0.2-0.7,0-1.1,0.6-1.4
		c0.9-0.5,1.9-1.1,2.7-1.6C20.3,8,20.6,8,20.8,8c0.2,0,0.5,0,0.9,0.4c0.2,0.2,0.3,0.3,0.5,0.5c0.3,0.3,0.6,0.6,0.9,0.9
		c0.3,0.2,0.6,0.3,0.9,0.3c0.1,0,0.2,0,0.3,0c0.6-0.2,1.3-0.3,1.9-0.5c0.6-0.2,1.2-0.3,1.7-0.5c0.5-0.1,0.8-0.4,0.9-0.9
		c0-0.2,0.1-0.4,0.2-0.7c0.1-0.3,0.2-0.6,0.2-1c0.1-0.6,0.4-1,0.9-1.3h4c0.5,0.2,0.8,0.6,0.9,1.2c0.1,0.6,0.2,1.1,0.4,1.7
		c0.1,0.4,0.5,0.7,0.9,0.8c1.2,0.3,2.3,0.7,3.7,1c0.1,0,0.2,0,0.3,0c0.3,0,0.6-0.1,0.9-0.3c0.3-0.3,0.6-0.6,0.9-0.9
		c0.2-0.2,0.4-0.5,0.7-0.7C42.7,8.1,43,8,43.2,8c0.2,0,0.3,0,0.5,0.1c1,0.5,2,1.1,3,1.7c0.6,0.3,0.6,0.9,0.5,1.3
		c-0.1,0.3-0.1,0.5-0.2,0.8c-0.1,0.4-0.2,0.8-0.3,1.3c-0.1,0.4,0,0.9,0.3,1.1c0.9,0.9,1.8,1.8,2.7,2.7c0.2,0.2,0.6,0.3,0.9,0.3
		c0.1,0,0.2,0,0.3,0c0.4-0.1,0.9-0.2,1.3-0.3c0.2-0.1,0.5-0.1,0.7-0.2c0.1,0,0.3-0.1,0.4-0.1c0.3,0,0.6,0.1,0.9,0.6
		c0.5,0.9,1.1,1.8,1.6,2.8c0.3,0.6,0.3,1-0.2,1.5c-0.2,0.2-0.4,0.4-0.5,0.5c-0.3,0.3-0.6,0.6-0.9,0.9c-0.3,0.3-0.4,0.8-0.3,1.1
		c0.2,0.6,0.3,1.3,0.5,1.9c0.2,0.6,0.3,1.2,0.5,1.7c0.1,0.5,0.4,0.8,0.9,0.9c0.2,0,0.4,0.1,0.6,0.2c0.3,0.1,0.6,0.2,0.9,0.2
		c0.7,0.1,1.1,0.4,1.3,0.9v4c-0.2,0.5-0.6,0.8-1.3,0.9c-0.5,0.1-1.1,0.2-1.7,0.4c-0.4,0.1-0.7,0.5-0.8,0.8c-0.4,1.2-0.7,2.5-1,3.8
		c-0.1,0.4,0,0.8,0.3,1.1c0.3,0.3,0.6,0.6,0.9,0.9c0.2,0.2,0.4,0.4,0.6,0.6c0.4,0.4,0.5,0.9,0.2,1.4c-0.6,1-1.2,2-1.7,3
		c-0.2,0.3-0.5,0.5-0.9,0.5l0,0c-0.1,0-0.2,0-0.3,0c-0.3-0.1-0.6-0.2-0.8-0.2c-0.4-0.1-0.8-0.2-1.3-0.3c-0.1,0-0.2,0-0.2,0
		c-0.3,0-0.6,0.1-0.9,0.3c-0.9,0.9-1.8,1.7-2.7,2.7c-0.3,0.3-0.4,0.7-0.3,1.1c0.1,0.4,0.2,0.9,0.3,1.3c0.1,0.3,0.2,0.5,0.2,0.8
		c0.2,0.6,0,1-0.5,1.3c-1,0.6-1.9,1.1-2.9,1.7C43.6,56,43.4,56,43.2,56c-0.3,0-0.5-0.1-0.8-0.4c-0.4-0.4-0.9-0.9-1.4-1.4
		c-0.3-0.3-0.6-0.4-0.9-0.4c-0.1,0-0.3,0-0.4,0.1c-1.1,0.3-2.2,0.6-3.5,0.9c-0.2,0-0.8,0.2-1,1c-0.1,0.6-0.3,1.2-0.5,1.9
		c-0.2,0.6-0.5,0.9-1.2,0.9C33.1,58.6,32.6,58.6,32,58.6z M23.2,51.2c0.1,0,0.3,0,0.5,0.1c1.8,0.8,3.8,1.3,5.8,1.5
		c0.6,0.1,0.9,0.4,1,0.9c0.1,0.5,0.2,1,0.4,1.5l0.3,1l0.4,0.1c0.2,0,0.4,0.1,0.6,0.1c0.7,0,0.9-0.6,1-1.1c0-0.2,0.1-0.3,0.1-0.5
		c0.1-0.4,0.2-0.8,0.3-1.2c0.1-0.5,0.4-0.7,0.8-0.8c2.2-0.3,4.1-0.8,6-1.6c0.1-0.1,0.3-0.1,0.4-0.1c0.3,0,0.5,0.1,0.8,0.4
		c0.1,0.1,0.2,0.2,0.3,0.3c0.3,0.3,0.6,0.6,0.8,0.9c0.3,0.4,0.6,0.6,1,0.6c0.4,0,0.8-0.3,1-0.5l0.2-0.2l-0.1-0.3
		c-0.1-0.2-0.1-0.4-0.2-0.6c-0.1-0.5-0.3-0.9-0.4-1.4c-0.2-0.6,0-1.1,0.5-1.4c1.5-1.2,2.9-2.5,4-4c0.4-0.5,0.7-0.6,1-0.6
		c0.2,0,0.3,0,0.5,0.1c0.5,0.1,1,0.3,1.4,0.4c0.2,0.1,0.4,0.1,0.6,0.2l0.3,0.1l0.2-0.2c0.4-0.3,0.5-0.7,0.5-1c0-0.5-0.4-0.9-0.6-1
		c-0.3-0.2-0.6-0.5-0.9-0.8c-0.1-0.1-0.2-0.2-0.3-0.3c-0.4-0.4-0.5-0.8-0.3-1.3c0.8-1.8,1.3-3.8,1.5-5.8c0.1-0.6,0.3-0.9,0.9-1
		c0.5-0.1,1-0.3,1.5-0.4l1.1-0.3v-1.7l-1.1-0.3c-0.5-0.1-1-0.3-1.5-0.4c-0.5-0.1-0.8-0.4-0.9-0.9c-0.3-2.1-0.8-4.1-1.6-5.9
		c-0.1-0.3-0.2-0.7,0.3-1.2c0.1-0.1,0.2-0.2,0.3-0.3c0.3-0.3,0.6-0.6,0.9-0.8c0.3-0.3,0.5-0.6,0.5-0.9c0-0.5-0.4-0.9-0.5-1l-0.2-0.2
		l-0.3,0.1c-0.2,0.1-0.4,0.1-0.6,0.2c-0.5,0.1-0.9,0.3-1.4,0.4c-0.2,0.1-0.3,0.1-0.5,0.1c-0.2,0-0.6-0.1-0.9-0.5
		c-1.2-1.6-2.6-2.9-4.1-4.1c-0.5-0.4-0.7-0.8-0.5-1.4c0.1-0.5,0.3-1,0.4-1.4c0.1-0.2,0.1-0.4,0.2-0.6l0.1-0.3l-0.2-0.2
		c-0.2-0.2-0.5-0.5-1-0.5c-0.4,0-0.7,0.2-1,0.6c-0.2,0.3-0.5,0.5-0.8,0.8c-0.1,0.1-0.2,0.2-0.3,0.3c-0.3,0.3-0.5,0.4-0.8,0.4
		c-0.2,0-0.3,0-0.5-0.1c-1.8-0.8-3.7-1.3-5.6-1.5c-0.8-0.1-1-0.3-1.2-1.1c-0.1-0.5-0.5-2-0.5-2l-0.1-0.5h-1.7l-0.3,1.1
		c-0.1,0.5-0.2,1-0.4,1.5c-0.1,0.6-0.5,0.9-1,0.9c-2,0.3-3.9,0.8-5.8,1.6c-0.2,0.1-0.3,0.1-0.5,0.1c-0.3,0-0.5-0.1-0.8-0.4
		c-0.3-0.3-0.5-0.5-0.8-0.8c-0.1-0.1-0.2-0.2-0.4-0.4c-0.3-0.3-0.5-0.6-0.9-0.6c-0.4,0-0.6,0.2-1,0.5l-0.3,0.3l0.1,0.4
		c0.1,0.2,0.1,0.4,0.2,0.6c0.1,0.5,0.3,0.9,0.4,1.4c0.2,0.6,0.1,1.1-0.4,1.5c-1.5,1.2-2.9,2.5-4.1,4.1c-0.4,0.5-0.7,0.5-1,0.5
		c-0.2,0-0.3,0-0.5-0.1c-0.5-0.1-0.9-0.3-1.4-0.4c-0.2-0.1-0.4-0.1-0.6-0.2l-0.3-0.1l-0.2,0.2c-0.1,0.1-0.5,0.5-0.5,1
		c0,0.3,0.2,0.7,0.6,0.9c0.3,0.2,0.5,0.4,0.7,0.7c0.1,0.1,0.2,0.2,0.3,0.3c0.5,0.5,0.6,0.8,0.3,1.5c-0.7,1.8-1.2,3.6-1.5,5.4
		c-0.1,0.9-0.3,1.1-1.2,1.3c-0.4,0.1-0.9,0.2-1.3,0.3l-1,0.3v1.7l1.1,0.3c0.5,0.1,1,0.2,1.5,0.4c0.6,0.1,0.9,0.5,0.9,1
		c0.3,2,0.8,3.9,1.5,5.8c0.2,0.5,0.1,0.9-0.3,1.3c-0.2,0.2-0.5,0.5-0.7,0.7c-0.1,0.1-0.3,0.3-0.4,0.4c-0.7,0.7-0.7,1.1,0,1.9
		l0.2,0.2l0.2,0c0,0,0.1,0,0.1,0c0.1,0,0.1,0,0.2,0c0.4-0.1,1.9-0.5,1.9-0.5c0.3-0.1,0.5-0.1,0.6-0.1c0.3,0,0.5,0.1,0.9,0.6
		c1.2,1.5,2.5,2.8,4,4c0.6,0.5,0.7,0.8,0.5,1.5l-0.6,2.3l0.2,0.2c0.3,0.3,0.6,0.5,1,0.5c0.4,0,0.7-0.2,1-0.6
		c0.2-0.3,0.5-0.5,0.8-0.8c0.1-0.1,0.2-0.2,0.3-0.3C22.7,51.3,23,51.2,23.2,51.2z"/>
	<path d="M32,25.5c-1.6,0-3-0.5-4.3-1.5c-1.6-1.2-3-2.6-4.4-3.9C23,19.8,23,19.5,23,19.3c0-0.3,0.2-0.7,0.5-0.9
		c2.4-1.8,5.4-2.7,8.5-2.7c3.1,0,6,0.9,8.5,2.7c0.3,0.2,0.5,0.6,0.5,0.9c0,0.2,0,0.5-0.3,0.7l-0.2,0.2c-1.6,1.6-3.2,3.2-5.2,4.4
		C34.2,25.1,33.1,25.4,32,25.5z M31.8,17.9c-2.3,0-4.3,0.5-5.4,1.4l-0.6,0.5l0.6,0.4c0.3,0.2,0.6,0.5,0.9,0.7
		c0.7,0.5,1.4,1.1,2.2,1.6c0.8,0.5,1.6,0.8,2.4,0.8c0.8,0,1.5-0.2,2.2-0.7c0.8-0.5,1.6-1.1,2.3-1.6c0.3-0.2,0.7-0.5,1-0.8l0.7-0.5
		l-0.7-0.5C36.2,18.4,34.1,17.9,31.8,17.9z"/>
	<path d="M31.8,48.4c-3.1,0-6-1-8.5-2.7c-0.3-0.2-0.5-0.6-0.5-0.9c0-0.2,0-0.5,0.2-0.7c1.5-1.5,3.1-3.2,5.1-4.4
		c1.2-0.8,2.5-1.1,3.7-1.1c1.5,0,2.9,0.6,4.4,1.7c1.3,1,2.6,2.2,3.8,3.3l0.4,0.4c0.2,0.2,0.4,0.5,0.3,0.8c0,0.3-0.2,0.7-0.5,0.9
		C37.7,47.4,34.9,48.4,31.8,48.4z M31.8,40.7c-0.8,0-1.5,0.2-2.3,0.7c-0.8,0.5-1.5,1.1-2.3,1.6c-0.3,0.2-0.7,0.5-1,0.8l-0.7,0.6
		l0.8,0.5c1.5,0.9,3.5,1.3,5.5,1.3c2,0,4-0.5,5.5-1.3l0.8-0.5l-0.7-0.5c-0.3-0.2-0.7-0.5-1-0.7c-0.8-0.6-1.5-1.1-2.2-1.6
		C33.3,41,32.5,40.7,31.8,40.7z"/>
	<path d="M44.7,41c-0.2,0-0.4,0-0.6-0.3c-1.5-1.5-3.2-3.1-4.4-5.1c-1.7-2.7-1.5-5.4,0.4-8c1-1.4,2.2-2.7,3.4-3.9l0.4-0.5
		c0.2-0.2,0.5-0.3,0.7-0.3c0.4,0,0.7,0.2,1,0.5c1.8,2.5,2.7,5.3,2.8,8.4c0,3.2-1,6-2.8,8.5C45.4,40.8,45,41,44.7,41L44.7,41z
		 M44,26.5c-1.1,1.2-2.2,2.4-2.9,4c-0.4,1-0.5,2.1,0,3.1c0.7,1.6,1.9,2.9,2.9,4l0.6,0.7l0.4-0.8c1.6-3.6,1.6-7.1,0-10.7l-0.4-0.8
		L44,26.5z"/>
	<path d="M19.3,41c-0.4,0-0.7-0.2-0.9-0.5c-1.8-2.5-2.7-5.4-2.7-8.5c0-3.1,0.9-6,2.7-8.5c0.2-0.3,0.6-0.5,1-0.5
		c0.2,0,0.5,0.1,0.6,0.3l0.2,0.2c1.6,1.6,3.3,3.3,4.4,5.3c0.6,1.1,0.9,2.2,0.9,3.4c0,1.5-0.6,2.9-1.6,4.2c-1.2,1.5-2.6,3-3.9,4.4
		C19.8,40.9,19.6,41,19.3,41C19.3,41,19.3,41,19.3,41z M19,26.6c-1.6,3.6-1.6,7.1,0,10.7l0.4,0.8l0.6-0.7c1.1-1.2,2.2-2.4,2.8-3.9
		c0.5-1.1,0.5-2.1,0-3.2c-0.7-1.6-1.8-2.8-2.9-4l-0.6-0.7L19,26.6z"/>
	<path d="M32,36.5c-2.5,0-4.5-2-4.5-4.5c0-2.5,2-4.5,4.5-4.5h0c2.5,0,4.5,2,4.5,4.5C36.5,34.5,34.5,36.5,32,36.5
		C32,36.5,32,36.5,32,36.5z M32,29.7c-1.2,0-2.3,1-2.3,2.2c0,0.6,0.2,1.2,0.6,1.7c0.4,0.4,1,0.7,1.6,0.7l0,0c1.2,0,2.3-1,2.3-2.2
		c0-0.6-0.2-1.2-0.6-1.7C33.2,30,32.6,29.7,32,29.7L32,29.7z"/>
</g>
</svg>
