<?xml version="1.0" encoding="utf-8"?>
<!-- Generator: Adobe Illustrator 24.0.1, SVG Export Plug-In . SVG Version: 6.00 Build 0)  -->
<svg version="1.1" id="Layer_1" xmlns="http://www.w3.org/2000/svg" xmlns:xlink="http://www.w3.org/1999/xlink" x="0px" y="0px"
	 viewBox="0 0 64 64" style="enable-background:new 0 0 64 64;" xml:space="preserve">
<style type="text/css">
	.st0{fill:#333333;}
	.st1{fill:#808080;}
</style>
<title>Rim 2019</title>
<g>
	<path d="M53.7,22.6h-1.5v-1.5c0-2.6-2.1-4.7-4.7-4.7H10.3c-2.6,0-4.7,2.1-4.7,4.7v21.7c0,2.6,2.1,4.7,4.7,4.7h37.1
		c2.6,0,4.7-2.1,4.7-4.7v-1.5h1.5c2.6,0,4.7-2.1,4.7-4.7v-9.4C58.3,24.7,56.2,22.6,53.7,22.6z M55.2,37.3c0,0.5-0.4,0.9-0.9,0.9H49
		v4.6c0,0.9-0.7,1.6-1.6,1.6H10.3c-0.9,0-1.6-0.7-1.6-1.6V21.2c0-0.9,0.7-1.6,1.6-1.6h37.1c0.9,0,1.6,0.7,1.6,1.6v4.6h5.3
		c0.5,0,0.9,0.4,0.9,0.9V37.3z"/>
	<path d="M21.2,22.7h-7.7c-0.9,0-1.6,0.7-1.6,1.6v15.4c0,0.9,0.7,1.6,1.6,1.6h7.7V22.7z"/>
	<rect x="24.3" y="22.7" class="st0" width="9.2" height="18.7"/>
	<path class="st1" d="M44.3,22.7h-7.7v18.7h7.7c0.9,0,1.6-0.7,1.6-1.6V24.3C46,23.4,45.2,22.7,44.3,22.7z"/>
</g>
</svg>
