<?xml version="1.0" encoding="utf-8"?>
<!-- Generator: Adobe Illustrator 24.0.1, SVG Export Plug-In . SVG Version: 6.00 Build 0)  -->
<svg version="1.1" id="Layer_1" xmlns="http://www.w3.org/2000/svg" xmlns:xlink="http://www.w3.org/1999/xlink" x="0px" y="0px"
	 viewBox="0 0 64 64" style="enable-background:new 0 0 64 64;" xml:space="preserve">
<style type="text/css">
	.st0{fill:#FFFFFF;}
</style>
<title>Rim 2019</title>
<g>
	<path d="M55.3,31.8c0,12.8-10.4,23.1-23.1,23.1c-12.8,0-23.1-10.3-23-23.1c0-12.7,10.4-23.1,23.1-23.1C45,8.8,55.3,19.1,55.3,31.8z
		 M32.2,10.7C20.4,10.8,11,20.2,11.1,31.9c0.1,11.7,9.5,21.1,21.1,21c11.7,0,21.1-9.5,21-21.1C53.2,20.1,43.8,10.7,32.2,10.7z"/>
	<path d="M41.5,31.8c0,5.1-4.2,9.3-9.3,9.3c-5.1,0-9.3-4.2-9.3-9.4c0-5.1,4.2-9.3,9.4-9.3C37.3,22.5,41.5,26.7,41.5,31.8z
		 M39.5,31.8c0-4-3.3-7.4-7.4-7.4c-4,0-7.4,3.3-7.4,7.3c0,4,3.3,7.4,7.4,7.4C36.2,39.2,39.6,35.8,39.5,31.8z"/>
	<path d="M21.1,16.9c2.2,0,3.9,1.7,3.9,3.8c0,2.1-1.8,3.9-3.9,3.9c-2.1,0-3.9-1.8-3.9-3.9C17.2,18.6,18.9,16.9,21.1,16.9z
		 M21.1,22.6c1,0,1.9-0.9,1.9-1.9c0-0.9-0.9-1.9-1.8-1.9c-1,0-2,0.9-2,1.9C19.1,21.8,20,22.6,21.1,22.6z"/>
	<path d="M21.1,39c2.2,0,3.9,1.7,3.9,3.9c0,2.1-1.8,3.9-3.9,3.9c-2.1,0-3.9-1.8-3.9-3.9C17.2,40.6,18.9,39,21.1,39z M21.1,44.7
		c1,0,1.9-0.9,1.9-1.9c0-0.9-0.9-1.9-1.9-1.9c-1,0-2,0.9-2,2C19.1,43.9,20,44.7,21.1,44.7z"/>
	<path d="M43.3,16.9c2.2,0,3.9,1.7,3.9,3.8c0,2.1-1.8,3.9-3.9,3.9c-2.1,0-3.9-1.8-3.9-3.9C39.4,18.6,41.1,16.9,43.3,16.9z
		 M43.2,22.6c1,0,1.9-0.9,1.9-1.9c0-1-0.9-1.9-1.9-1.9c-1,0-1.9,0.9-1.9,1.9C41.3,21.8,42.2,22.6,43.2,22.6z"/>
	<path d="M43.3,39c2.2,0,3.9,1.7,3.9,3.9c0,2.1-1.8,3.9-3.9,3.9c-2.1,0-3.9-1.8-3.9-4C39.4,40.6,41.1,39,43.3,39z M43.2,44.7
		c1,0,1.9-0.9,1.9-1.9c0-0.9-0.9-1.9-1.9-1.9c-1,0-2,0.9-2,2C41.3,43.9,42.2,44.7,43.2,44.7z"/>
	<path d="M51.6,31.9c0,2.1-1.6,3.7-3.8,3.8c-2.1,0-3.8-1.7-3.8-3.8c0-2.1,1.7-3.8,3.8-3.9C49.9,28,51.6,29.7,51.6,31.9z M47.8,30
		c-1,0-1.9,0.8-1.9,1.9c0,1,0.9,1.9,1.9,1.8c1,0,1.8-0.8,1.8-1.9C49.7,30.8,48.8,30,47.8,30z"/>
	<path d="M12.8,31.8c0-2.1,1.7-3.8,3.8-3.8c2.1,0,3.9,1.7,3.8,3.9c0,2.1-1.8,3.8-3.9,3.8C14.4,35.6,12.7,33.9,12.8,31.8z M16.6,33.7
		c1,0,1.8-0.8,1.8-1.8c0-1-0.9-1.9-1.9-1.9c-1,0-1.8,0.8-1.8,1.8C14.7,32.8,15.6,33.7,16.6,33.7z"/>
	<path d="M32.2,12.4c2.1,0,3.8,1.7,3.8,3.8c0,2.2-1.7,3.9-3.9,3.8c-2.1,0-3.8-1.8-3.7-3.9C28.4,14.1,30.1,12.4,32.2,12.4z M34,16.1
		c0-1-0.8-1.8-1.8-1.8c-1.1,0-1.9,0.8-1.9,1.9c0,1,0.8,1.8,1.9,1.8C33.2,18,34,17.1,34,16.1z"/>
	<path d="M32.2,51.3c-2.1,0-3.8-1.7-3.8-3.8c0-2.1,1.7-3.8,3.8-3.8c2.1,0,3.8,1.8,3.8,3.8C36,49.7,34.3,51.3,32.2,51.3z M34,47.4
		c0-1-0.8-1.9-1.9-1.9c-1,0-1.9,0.8-1.9,1.9c0,1,0.8,1.9,1.9,1.9C33.2,49.3,34,48.5,34,47.4z"/>
</g>
<image style="overflow:visible;" width="512" height="512" xlink:href="9AA316A5.jpg"  transform="matrix(1 0 0 1 -7894 -7770.1104)">
</image>
<path class="st0" d="M63.5,0.8c0,0-10.7,0-12.2,0l-9.1,17.9h5.2l-7.8,17.2l23.6-24.4h-7.4L63.5,0.8z"/>
<path d="M60,2.5c-0.2,0-7.8,0-8,0c0,0-7.9,15-7.9,15.2c1.8,0,3.5,0,5.3,0c-2.7,5.3-5.4,10.5-8.1,15.7c0,0,12.4-13.4,18.6-20.2
	c-2.3,0-4.6,0-6.9,0C55.2,9.8,60,2.5,60,2.5z"/>
</svg>
