<svg id="Layer_1" data-name="Layer 1" xmlns="http://www.w3.org/2000/svg" xmlns:xlink="http://www.w3.org/1999/xlink" viewBox="0 0 1033.17 230.61"><defs><style>.cls-1{fill:#fff;}.cls-2{clip-path:url(#clip-path);}</style><clipPath id="clip-path"><rect class="cls-1" width="1033.17" height="230.61"/></clipPath></defs><rect class="cls-1" width="1033.17" height="230.61"/><g class="cls-2"><path class="cls-1" d="M181.77,0H131A130,130,0,0,1,78.41,104.9L58.27,120l78,106.39h64.14l-71.78-97.89A180.07,180.07,0,0,0,181.77,0"/><rect class="cls-1" width="52.07" height="226.34"/><rect class="cls-1" x="215.57" y="0.05" width="49.04" height="226.23"/><path class="cls-1" d="M694.87,65.58c-18.71,0-36.43,5.8-48.27,21.84V69.79H600V226.28h47.22V144c0-23.79,16-35.45,35.17-35.45,20.59,0,32.43,12.31,32.43,35.12v82.57h46.8V126.77c0-36.42-29-61.19-66.7-61.19"/><path class="cls-1" d="M412.85,69.79v10a82.58,82.58,0,1,0,0,136.48v10h46.84V69.79ZM370.23,188.3c-23.45,0-42.46-18-42.46-40.26s19-40.27,42.46-40.27,42.45,18,42.45,40.27-19,40.26-42.45,40.26"/><path class="cls-1" d="M532.18,90.17V69.78h-48v156.5h48.08V153.21c0-24.65,26.71-37.89,45.25-37.89h.56V69.79c-19,0-36.53,8.15-45.92,20.38"/><path class="cls-1" d="M907.16,69.79v10a82.58,82.58,0,1,0,0,136.48v10H954V69.79ZM864.54,188.3c-23.44,0-42.45-18-42.45-40.26s19-40.27,42.45-40.27S907,125.8,907,148s-19,40.26-42.46,40.26"/><path class="cls-1" d="M988,77.81a3.44,3.44,0,0,0,2.07-3.4c0-2.22-1.7-3.71-4.16-3.71H981.6V82.52h2.1V78.17H986l1.91,4.37h2.28Zm-2.09-1.55h-2.28V72.65h2.28c1.43,0,2,.69,2,1.76s-.4,1.85-2,1.85"/><path class="cls-1" d="M985.43,65.58a11.23,11.23,0,1,0,11.1,11.23,11.14,11.14,0,0,0-11.1-11.23m0,20.3a9.08,9.08,0,1,1,9-9.07,9,9,0,0,1-9,9.07"/><path class="cls-1" d="M1003.76,170.77a29.41,29.41,0,1,0,29.41,29.42,29.42,29.42,0,0,0-29.41-29.42"/></g></svg>