<?xml version="1.0" encoding="utf-8"?>
<!-- Generator: Adobe Illustrator 24.1.3, SVG Export Plug-In . SVG Version: 6.00 Build 0)  -->
<svg version="1.1" id="Layer_1" xmlns="http://www.w3.org/2000/svg" xmlns:xlink="http://www.w3.org/1999/xlink" x="0px" y="0px"
	 viewBox="0 0 1033.2 230.6" style="enable-background:new 0 0 1033.2 230.6;" xml:space="preserve">
<style type="text/css">
	.st0{fill:#FFFFFF;}
</style>
<g>
	<g>
		<path class="st0" d="M181.8,0H131c0.2,41.3-19.3,80.3-52.5,104.9L58.3,120l78,106.4h64.1l-71.8-97.9C162.8,94.5,182,48.2,181.8,0"
			/>
		<rect class="st0" width="52.1" height="226.3"/>
		<rect x="215.6" y="0.1" class="st0" width="49" height="226.2"/>
		<path class="st0" d="M694.9,65.6c-18.7,0-36.4,5.8-48.3,21.8V69.8H600v156.5h47.2V144c0-23.8,16-35.4,35.2-35.4
			c20.6,0,32.4,12.3,32.4,35.1v82.6h46.8v-99.5C761.6,90.3,732.6,65.6,694.9,65.6"/>
		<path class="st0" d="M412.8,69.8v10c-37.7-25.7-89.1-16-114.8,21.7c-25.7,37.7-16,89.1,21.7,114.8c28.1,19.1,65,19.1,93.1,0v10
			h46.9V69.8H412.8z M370.2,188.3c-23.4,0-42.5-18-42.5-40.3s19-40.3,42.5-40.3s42.5,18,42.5,40.3S393.7,188.3,370.2,188.3"/>
		<path class="st0" d="M532.2,90.1V69.7h-48v156.5h48.1v-73.1c0-24.7,26.7-37.9,45.2-37.9h0.6V69.7
			C559.1,69.7,541.5,77.9,532.2,90.1"/>
		<path class="st0" d="M907.2,69.8v10c-37.7-25.7-89.1-16-114.8,21.7c-25.7,37.7-16,89.1,21.7,114.8c28.1,19.1,65,19.1,93.1,0v10
			H954V69.8H907.2z M864.5,188.3c-23.5,0-42.5-18-42.5-40.3s19-40.3,42.5-40.3s42.5,18,42.5,40.3S888,188.3,864.5,188.3"/>
		<path class="st0" d="M988,77.8c1.3-0.6,2.2-2,2.1-3.4c0-2.2-1.7-3.7-4.2-3.7h-4.3v11.8h2.1v-4.4h2.3l1.9,4.4h2.3L988,77.8z
			 M986,76.3h-2.3v-3.6h2.3c1.4,0,2,0.7,2,1.8S987.5,76.3,986,76.3"/>
		<path class="st0" d="M985.4,65.6c-6.2-0.1-11.3,4.9-11.4,11.1C974,82.9,979,88,985.2,88c6.2,0.1,11.3-4.9,11.4-11.1
			c0,0,0-0.1,0-0.1C996.6,70.6,991.6,65.6,985.4,65.6C985.4,65.6,985.4,65.6,985.4,65.6 M985.4,85.9c-5,0-9.1-4-9.2-9s4-9.1,9-9.2
			s9.1,4,9.2,9c0,0,0,0.1,0,0.1C994.5,81.8,990.5,85.8,985.4,85.9C985.5,85.9,985.4,85.9,985.4,85.9"/>
		<path class="st0" d="M1003.8,170.8c-16.2,0-29.4,13.2-29.4,29.4s13.2,29.4,29.4,29.4c16.2,0,29.4-13.2,29.4-29.4
			C1033.2,183.9,1020,170.8,1003.8,170.8C1003.8,170.8,1003.8,170.8,1003.8,170.8"/>
	</g>
</g>
</svg>
