<?xml version="1.0" encoding="utf-8"?>
<!-- Generator: Adobe Illustrator 24.2.1, SVG Export Plug-In . SVG Version: 6.00 Build 0)  -->
<svg version="1.1" id="Layer_1" xmlns="http://www.w3.org/2000/svg" xmlns:xlink="http://www.w3.org/1999/xlink" x="0px" y="0px"
	 viewBox="0 0 494.2 83.6" style="enable-background:new 0 0 494.2 83.6;" xml:space="preserve">
<style type="text/css">
	.st0{fill-rule:evenodd;clip-rule:evenodd;fill:#FFFFFF;}
	.st1{fill-rule:evenodd;clip-rule:evenodd;fill:#E2000F;}
</style>
<path class="st0" d="M0,0.3h171.7l-16.9,26c0,0-9.7,13.2-28,13.2c-18.2,0-26.8,0-26.8,0l38.8,30l39.5-69.2h42.2L191,51.7L291.1,0.3
	H342l-90.3,47.8l44.5,35.3h-39.9l-31.9-22.2L182,83.4h-66.4L31.4,22.7h81.5c4.5,0,6.7-2,8.8-6.3H21.6L0,0.3z"/>
<path class="st1" d="M494.2,0H375.9h-19.4c-8,0-15.6,2.5-20,9.7l-15.8,27.7c-3.8,6.9-1.2,12.4,8.2,12.4h90.7c3.8,0,4,2,2.9,4.9
	l-3.6,7.7c-1.6,2.9-3.2,4.8-6.8,4.8H306.6l-8.9,16.4h91.5h49.7c9.1,0,14.6,0,18.6-7.8l14.7-30.4c3.1-6.9-0.1-11.4-8.8-11.4h-92.3
	c-3.4,0-3.8-1.2-2.8-3.6l7-13.2c1.1-1.5,2.4-1.8,4.7-1.8h106.6L494.2,0z"/>
</svg>
