<svg id="Layer_1" data-name="Layer 1" xmlns="http://www.w3.org/2000/svg" viewBox="0 0 357.36 85.8"><defs><style>.cls-1{fill:#fff;}</style></defs><path class="cls-1" d="M0,0H31.08L34.2,26.88c.72,6.48,1.2,13,1.32,19.92a126.86,126.86,0,0,1,6.84-18.72L55.08,0H89.16L42.36,85.8H14.52Z"/><path class="cls-1" d="M93,0h31.2l2.88,27.84c.48,5,.84,11.28.84,18.84L148.44,0h31.32l-4.08,85.8H147.12L150.84,40a137.79,137.79,0,0,1-5.52,13.8l-14.88,32H112.8L108,41.28a100.87,100.87,0,0,1-3,13.92L96.36,85.8h-29Z"/><path class="cls-1" d="M216.12,0h34l11.16,85.8H230.76l-.6-11.4H209.52l-4.68,11.4H171.36ZM229,54.12l-.36-9.24c-.12-3-.36-6.84-.36-11.4,0-1.8,0-3.84.12-6-1.8,5.76-3.36,10-4.32,12.36l-6,14.28Z"/><path class="cls-1" d="M285.48,40,265.32,0h34.8l3.72,8.28a75.75,75.75,0,0,1,3.6,10.2,32.62,32.62,0,0,1,4.92-8.76l7-9.72h38L321.6,43.44,342.72,85.8h-34.8L303,74.64a37.3,37.3,0,0,1-2.64-8.4,99.64,99.64,0,0,1-5.64,9.12L286.56,85.8H247.08Z"/></svg>